<svg xmlns="http://www.w3.org/2000/svg" viewBox="0 0 232 36" width="232" height="36" role="img" aria-label="VirtEngine Docs">
  <!-- Mark: hexagonal marketplace network -->
  <g stroke="#2ee6b7" stroke-width="1.4" fill="none">
    <path d="M18 4 L30 11 L30 25 L18 32 L6 25 L6 11 Z"/>
    <path d="M18 4 L18 18 M30 11 L18 18 M30 25 L18 18 M18 32 L18 18 M6 25 L18 18 M6 11 L18 18"/>
  </g>
  <g fill="#2ee6b7">
    <circle cx="18" cy="4" r="2.4"/>
    <circle cx="30" cy="11" r="2.4"/>
    <circle cx="30" cy="25" r="2.4"/>
    <circle cx="18" cy="32" r="2.4"/>
    <circle cx="6" cy="25" r="2.4"/>
    <circle cx="6" cy="11" r="2.4"/>
  </g>
  <circle cx="18" cy="18" r="3.6" fill="#0b1418"/>
  <circle cx="18" cy="18" r="3.6" fill="none" stroke="#2ee6b7" stroke-width="1.4"/>
  <!-- Wordmark -->
  <text x="42" y="24.5" font-family="'Space Grotesk','Segoe UI',system-ui,sans-serif" font-size="19" font-weight="700" letter-spacing="-0.4" fill="#f0f6f4">Virt<tspan fill="#2ee6b7">Engine</tspan></text>
  <rect x="184" y="9" width="44" height="18" rx="4" fill="none" stroke="#48584f" stroke-width="1"/>
  <text x="206" y="22" font-family="'Space Grotesk','Segoe UI',system-ui,sans-serif" font-size="10.5" font-weight="600" letter-spacing="2" fill="#adbcb7" text-anchor="middle">DOCS</text>
</svg>
